<?xml version="1.0" standalone="no"?>
<!DOCTYPE svg PUBLIC "-//W3C//DTD SVG 20010904//EN"
 "http://www.w3.org/TR/2001/REC-SVG-20010904/DTD/svg10.dtd">
<svg version="1.0" xmlns="http://www.w3.org/2000/svg"
 width="5760.000000pt" height="1800.000000pt" viewBox="0 0 5760.000000 1800.000000"
 preserveAspectRatio="xMidYMid meet">

<g transform="translate(0.000000,1800.000000) scale(0.100000,-0.100000)"
fill="#000000" stroke="none">
<path d="M14690 12952 c0 -5 -18 -15 -39 -22 -22 -7 -42 -19 -45 -25 -2 -7
-18 -16 -35 -20 -16 -3 -39 -15 -52 -26 -12 -10 -30 -19 -40 -19 -10 0 -22 -6
-26 -13 -4 -6 -34 -21 -65 -31 -32 -11 -58 -23 -58 -28 0 -5 -13 -14 -30 -19
-16 -6 -30 -15 -30 -19 0 -5 -14 -12 -32 -15 -35 -8 -64 -22 -86 -42 -7 -7
-20 -13 -28 -13 -8 0 -17 -7 -20 -15 -4 -8 -14 -15 -23 -15 -9 0 -29 -7 -45
-15 -15 -8 -33 -15 -38 -15 -5 0 -16 -7 -24 -15 -9 -8 -24 -15 -34 -15 -11 0
-23 -6 -27 -12 -11 -18 -43 -34 -81 -43 -18 -3 -32 -10 -32 -15 0 -4 -13 -13
-30 -19 -16 -5 -30 -14 -30 -19 0 -4 -23 -15 -51 -22 -28 -8 -63 -24 -77 -37
-15 -13 -35 -23 -44 -23 -10 0 -18 -4 -18 -9 0 -5 -12 -12 -27 -15 -40 -10
-83 -30 -83 -38 0 -5 -7 -8 -15 -8 -8 0 -15 -4 -15 -10 0 -5 -7 -10 -15 -10
-8 0 -15 -4 -15 -9 0 -5 -12 -11 -27 -13 -38 -4 -42 -28 -5 -28 17 0 32 -4 34
-10 2 -5 27 -14 56 -20 29 -5 60 -17 68 -25 9 -8 27 -15 42 -15 31 0 92 -21
92 -32 0 -4 10 -8 21 -8 26 0 102 -21 109 -31 5 -7 39 -15 110 -28 24 -5 46
-13 48 -19 2 -6 29 -17 60 -23 31 -7 63 -19 70 -26 7 -7 25 -13 40 -13 30 0
92 -21 92 -31 0 -4 20 -10 45 -13 25 -4 51 -14 59 -22 8 -8 26 -14 39 -14 14
0 41 -7 60 -15 20 -8 48 -15 62 -15 14 0 25 -4 25 -9 0 -5 35 -17 78 -27 42
-9 79 -20 82 -23 3 -4 28 -12 55 -19 28 -7 52 -17 53 -23 2 -5 17 -9 33 -9 16
0 46 -7 66 -15 19 -8 46 -15 59 -15 13 0 24 -4 24 -10 0 -5 27 -15 60 -22 33
-6 60 -16 60 -20 0 -4 9 -8 20 -8 11 0 20 5 20 10 0 6 6 10 13 10 18 0 67 24
67 33 0 4 8 7 18 7 10 0 27 7 38 15 10 8 27 15 37 15 9 0 17 3 17 8 0 10 50
32 72 32 10 0 18 4 18 10 0 5 18 15 41 21 23 7 43 19 46 26 3 7 15 13 27 13
11 0 34 7 50 15 15 8 34 15 41 15 7 0 15 6 18 14 3 8 20 17 38 21 18 4 39 14
46 21 8 7 32 18 53 24 22 6 40 15 40 20 0 6 7 10 15 10 16 0 56 20 65 32 3 4
28 14 55 24 28 9 52 19 55 23 10 12 50 31 66 31 8 0 22 7 30 15 9 8 27 18 42
21 15 4 32 12 37 19 6 6 17 14 25 18 11 4 10 7 -7 12 -13 4 -23 11 -23 15 0 4
-20 16 -45 27 -25 10 -45 21 -45 25 0 3 -17 12 -37 19 -20 6 -46 20 -57 30
-11 11 -28 19 -37 19 -10 0 -24 6 -31 14 -8 7 -23 16 -35 20 -11 4 -30 15 -41
25 -12 9 -40 24 -64 32 -23 7 -51 22 -60 31 -10 10 -27 18 -38 18 -11 0 -20 4
-20 9 0 5 -16 15 -35 21 -19 6 -38 17 -42 24 -5 7 -25 19 -45 25 -21 7 -38 17
-38 22 0 5 -8 9 -18 9 -10 0 -27 7 -38 15 -10 8 -25 15 -32 15 -7 0 -22 9 -34
20 -12 11 -32 20 -44 20 -12 0 -24 6 -27 14 -3 8 -22 19 -41 26 -20 6 -36 16
-36 21 0 5 -9 9 -20 9 -11 0 -29 9 -40 20 -11 11 -41 27 -67 36 -25 9 -55 24
-66 35 -12 10 -27 19 -35 19 -7 0 -20 7 -28 15 -9 8 -26 15 -38 15 -12 0 -32
11 -43 24 -12 13 -35 27 -52 31 -17 4 -31 11 -31 16 0 5 -18 9 -40 9 -22 0
-40 -4 -40 -8z"/>
<path d="M17780 12408 c-98 -10 -294 -42 -393 -64 l-67 -16 2 -3106 3 -3107
27 -98 c68 -247 183 -370 415 -445 196 -64 488 -86 804 -61 132 10 437 58 513
79 l39 12 -8 1793 -7 1793 48 25 c303 152 650 194 902 108 215 -74 335 -199
395 -410 21 -76 22 -82 27 -1421 6 -1319 6 -1347 27 -1435 65 -280 178 -406
438 -488 153 -48 276 -62 550 -61 289 0 540 29 743 84 l43 11 -4 1702 c-3
1847 -1 1760 -58 2032 -173 818 -765 1309 -1719 1427 -166 20 -626 17 -775 -6
-141 -21 -403 -85 -520 -127 -46 -16 -86 -29 -89 -29 -3 0 -7 276 -9 613 -3
596 -4 614 -25 697 -81 305 -264 444 -650 495 -125 17 -507 19 -652 3z"/>
<path d="M35150 12413 c-107 -11 -337 -47 -418 -65 l-92 -21 3 -2831 2 -2831
23 -85 c31 -115 109 -272 180 -361 194 -244 579 -475 1057 -634 341 -114 700
-165 1153 -165 1071 0 1906 383 2379 1090 234 350 367 737 425 1235 19 167 16
636 -5 815 -65 541 -256 1023 -546 1382 -448 555 -1165 859 -1971 835 -216 -6
-355 -24 -547 -72 -117 -29 -272 -75 -335 -100 -16 -6 -17 35 -20 582 -4 516
-6 598 -22 673 -36 171 -106 304 -201 381 -97 77 -289 145 -480 168 -81 10
-499 13 -585 4z m2042 -3053 c288 -27 512 -155 654 -371 125 -191 182 -427
191 -785 8 -318 -20 -531 -100 -742 -53 -143 -118 -243 -227 -352 -195 -195
-404 -269 -725 -257 -197 8 -331 38 -487 109 l-68 31 0 1098 0 1099 60 30
c153 77 315 125 471 139 52 4 101 9 109 10 8 0 63 -4 122 -9z"/>
<path d="M40960 12409 c-103 -11 -291 -42 -387 -64 l-70 -16 -5 -2992 c-3
-1650 -1 -3046 3 -3113 32 -447 209 -631 674 -706 107 -17 527 -16 670 1 126
15 365 57 413 72 l32 11 0 3056 c0 2622 -2 3071 -15 3152 -53 352 -203 504
-575 582 -79 17 -142 20 -375 23 -154 2 -318 -1 -365 -6z"/>
<path d="M12886 11948 c-3 -40 -8 -416 -10 -835 l-5 -763 172 0 c172 1 207 7
207 39 0 6 5 11 11 11 7 0 21 10 33 23 12 12 37 33 55 47 19 14 43 33 55 44
11 10 31 22 44 27 12 5 22 15 22 24 0 8 9 15 20 15 11 0 20 7 20 15 0 9 10 19
23 24 12 5 33 19 47 30 14 12 41 35 60 52 19 16 42 36 51 44 9 8 21 15 27 15
6 0 14 9 17 20 3 11 13 20 21 20 7 0 19 9 26 20 7 11 19 20 26 20 7 0 15 7 18
15 4 8 14 15 24 15 10 0 20 7 24 15 3 8 12 15 21 15 8 0 15 7 15 15 0 8 14 21
30 30 17 9 30 19 30 24 0 5 9 11 20 14 11 3 20 12 20 21 0 9 8 16 20 16 11 0
20 5 20 10 0 6 8 10 19 10 10 0 21 9 24 21 3 11 15 23 26 26 12 3 21 9 21 14
0 5 11 14 25 19 14 5 28 17 31 25 4 8 12 15 19 15 11 0 31 30 23 34 -2 1 -15
10 -30 19 -15 9 -34 17 -43 17 -8 0 -15 5 -15 11 0 5 -13 15 -30 20 -16 6 -30
17 -30 25 0 8 -7 14 -15 14 -22 0 -65 25 -106 63 -10 9 -23 17 -28 17 -14 0
-57 24 -76 43 -9 10 -30 21 -46 24 -16 3 -29 11 -29 18 0 7 -13 18 -30 24 -16
5 -30 15 -30 20 0 6 -9 11 -20 11 -11 0 -20 5 -20 10 0 6 -9 10 -19 10 -10 0
-21 7 -25 15 -3 8 -12 15 -21 15 -8 0 -15 5 -15 10 0 6 -5 10 -11 10 -6 0 -17
7 -25 15 -9 8 -24 15 -34 15 -11 0 -24 8 -29 19 -6 10 -21 21 -34 25 -13 3
-36 17 -53 31 -16 14 -35 25 -41 25 -7 0 -13 4 -13 9 0 5 -8 11 -17 15 -21 6
-51 25 -71 44 -7 6 -17 12 -22 12 -5 0 -15 6 -22 13 -7 6 -30 20 -50 29 -21
10 -38 22 -38 28 0 5 -6 10 -13 10 -18 0 -75 29 -98 49 -35 32 -48 41 -59 41
-5 0 -10 5 -10 10 0 6 -9 10 -20 10 -11 0 -23 7 -26 15 -4 8 -12 15 -19 15 -9
0 -15 -22 -19 -72z"/>
<path d="M16509 11802 c-14 -16 -33 -31 -42 -35 -9 -3 -17 -11 -17 -17 0 -5
-9 -10 -20 -10 -11 0 -20 -7 -20 -15 0 -9 -8 -19 -17 -22 -9 -4 -33 -24 -54
-45 -20 -21 -42 -38 -47 -38 -6 0 -16 -9 -22 -19 -5 -11 -19 -23 -30 -26 -11
-3 -20 -13 -20 -21 0 -8 -7 -14 -15 -14 -8 0 -15 -4 -15 -10 0 -5 -5 -10 -10
-10 -6 0 -21 -10 -34 -22 -13 -13 -34 -30 -46 -38 -13 -8 -34 -25 -46 -37 -11
-13 -29 -23 -38 -23 -9 0 -16 -4 -16 -10 0 -5 -7 -10 -15 -10 -8 0 -15 -5 -15
-10 0 -6 -12 -16 -27 -23 -15 -6 -36 -20 -45 -29 -10 -10 -29 -20 -43 -24 -14
-3 -25 -10 -25 -15 0 -5 -11 -14 -25 -19 -14 -5 -25 -13 -25 -18 0 -5 -20 -17
-45 -28 -25 -10 -45 -21 -45 -26 0 -4 -18 -13 -40 -19 -22 -7 -40 -16 -40 -21
0 -5 -16 -16 -35 -24 -19 -8 -35 -18 -35 -23 0 -5 -14 -11 -31 -15 -40 -8 -79
-49 -79 -84 0 -15 -7 -54 -15 -87 -8 -33 -14 -76 -15 -95 0 -20 -4 -40 -8 -45
-14 -16 -32 -89 -32 -129 0 -20 -4 -36 -9 -36 -6 0 -13 -21 -16 -47 -14 -112
-29 -188 -38 -194 -5 -4 -14 -44 -19 -90 -6 -46 -14 -86 -17 -89 -9 -7 -33
-142 -39 -212 -2 -32 -7 -58 -12 -58 -9 0 -30 -78 -30 -117 -1 -15 -9 -53 -20
-83 -11 -30 -19 -74 -20 -96 0 -23 -6 -64 -14 -90 -14 -46 -26 -98 -63 -274
-9 -41 -18 -103 -20 -137 -3 -35 -8 -63 -12 -63 -10 0 -34 -80 -27 -88 3 -3 6
0 6 6 0 6 18 17 40 23 22 7 40 16 40 21 0 4 9 8 19 8 11 0 22 4 26 9 3 5 19
12 35 16 17 4 30 10 30 15 0 4 15 13 33 21 17 7 35 19 40 26 4 6 24 15 43 19
20 4 38 12 41 20 2 7 18 16 34 19 16 4 32 12 36 18 7 11 49 30 98 45 11 3 28
14 39 24 11 10 27 18 37 18 9 0 19 6 22 14 3 8 19 17 36 21 16 3 39 15 52 26
12 10 31 19 41 19 10 0 21 6 24 14 3 8 19 18 35 21 16 4 31 11 34 16 4 5 15 9
26 9 10 0 19 4 19 9 0 5 15 14 33 22 17 7 34 15 37 18 10 12 50 31 64 31 8 0
19 6 23 14 4 7 25 19 46 25 20 7 37 17 37 22 0 5 6 9 13 9 19 0 77 30 77 39 0
4 23 14 50 21 28 7 50 19 50 26 0 7 18 15 40 19 25 4 40 12 40 21 0 8 7 14 15
14 17 0 77 28 85 40 3 4 14 9 25 11 20 4 20 13 23 1037 1 567 -1 1032 -5 1032
-5 0 -20 -13 -34 -28z"/>
<path d="M25310 10774 c-346 -30 -630 -94 -900 -201 -937 -371 -1496 -1198
-1549 -2290 -9 -184 0 -461 19 -618 78 -641 328 -1167 737 -1555 383 -363 889
-587 1503 -665 268 -35 699 -30 970 10 765 114 1376 480 1761 1056 122 182
247 455 314 685 136 469 157 1085 54 1574 -234 1101 -1053 1834 -2219 1986
-119 15 -582 27 -690 18z m435 -1425 c90 -16 204 -64 281 -118 212 -149 341
-397 401 -772 24 -149 24 -550 0 -712 -63 -423 -222 -695 -482 -823 -119 -58
-185 -74 -335 -81 -266 -12 -454 59 -618 232 -145 152 -232 360 -279 665 -22
145 -25 549 -4 685 40 272 103 451 214 613 178 259 473 370 822 311z"/>
<path d="M30880 10770 c-531 -41 -986 -154 -1365 -340 -194 -94 -308 -174
-423 -295 -121 -128 -180 -233 -220 -393 -15 -61 -17 -290 -20 -2692 -2 -1891
0 -2653 8 -2724 46 -401 220 -572 655 -643 142 -23 542 -23 720 1 133 18 310
49 378 67 l37 10 0 895 c0 793 2 895 15 890 102 -39 367 -91 545 -107 164 -14
497 -6 659 16 1008 139 1731 721 2036 1640 133 401 180 902 134 1425 -93 1058
-650 1785 -1600 2088 -212 68 -433 114 -699 147 -149 19 -689 28 -860 15z
m480 -1410 c142 -13 251 -40 355 -89 265 -126 407 -345 476 -736 21 -114 23
-162 23 -395 0 -227 -4 -282 -22 -380 -57 -307 -146 -495 -310 -652 -176 -168
-396 -248 -687 -248 -171 0 -336 35 -486 102 l-69 31 0 1113 0 1114 48 24 c55
28 212 79 297 96 50 11 149 22 240 28 11 1 72 -3 135 -8z"/>
<path d="M45370 10774 c-623 -56 -1089 -222 -1505 -537 -103 -78 -299 -269
-382 -372 -380 -473 -573 -1067 -573 -1765 0 -997 372 -1770 1080 -2242 126
-84 362 -201 520 -258 242 -88 528 -147 835 -171 184 -15 552 -7 725 16 1237
159 2057 944 2234 2140 54 367 45 812 -25 1160 -64 322 -196 649 -365 909
-220 336 -542 625 -903 810 -292 149 -600 244 -951 292 -110 15 -586 27 -690
18z m450 -1430 c154 -32 316 -130 411 -250 139 -175 216 -378 255 -676 23
-177 15 -575 -15 -742 -80 -445 -290 -720 -621 -812 -50 -14 -102 -18 -225
-19 -137 0 -171 4 -240 23 -358 103 -567 420 -624 944 -14 123 -14 455 -1 573
41 366 165 646 358 808 105 89 281 158 432 170 70 6 188 -2 270 -19z"/>
<path d="M49385 10689 c-279 -39 -525 -231 -678 -526 -48 -94 -109 -263 -122
-340 l-7 -42 479 -569 c721 -857 868 -1033 871 -1041 1 -4 -209 -254 -467
-555 -702 -816 -761 -896 -821 -1106 -31 -107 -38 -292 -16 -394 60 -268 297
-487 617 -570 160 -42 241 -51 467 -50 171 0 215 3 227 15 8 8 242 343 520
744 279 402 510 728 513 726 4 -3 141 -196 305 -429 326 -463 372 -525 513
-682 158 -177 282 -275 410 -323 512 -194 1038 -1 1250 459 33 71 76 215 89
300 l6 40 -293 385 c-162 211 -462 605 -667 874 -206 270 -377 495 -382 500
-4 6 87 115 219 261 759 838 860 960 952 1149 63 129 81 209 87 375 6 169 -5
230 -64 350 -28 58 -57 95 -127 165 -109 107 -200 163 -360 216 -166 56 -278
72 -503 73 l-193 1 -17 -25 c-28 -41 -951 -1268 -1021 -1358 l-64 -82 -352
468 c-193 258 -387 511 -431 563 -113 134 -273 288 -339 328 -151 90 -389 130
-601 100z"/>
<path d="M14465 10539 c-22 -5 -57 -12 -77 -15 -21 -4 -38 -11 -38 -15 0 -5
-8 -9 -17 -9 -25 0 -86 -23 -98 -37 -5 -6 -29 -17 -52 -23 -24 -6 -43 -15 -43
-20 0 -5 -18 -15 -40 -21 -22 -7 -40 -16 -40 -20 0 -5 -18 -13 -40 -19 -21 -6
-45 -17 -53 -24 -7 -7 -28 -17 -45 -21 -18 -3 -38 -12 -45 -19 -6 -6 -40 -20
-74 -30 -34 -10 -64 -25 -67 -32 -3 -8 -16 -14 -29 -14 -13 0 -34 -9 -46 -19
-12 -11 -40 -22 -62 -26 -21 -4 -42 -12 -46 -19 -7 -12 -32 -18 -140 -33 -24
-3 -43 -9 -43 -13 0 -4 -15 -11 -34 -14 l-33 -6 -6 -103 c-10 -165 -19 -247
-28 -253 -5 -3 -9 -35 -9 -72 0 -63 2 -68 27 -79 15 -7 33 -13 40 -13 7 0 13
-4 13 -10 0 -5 16 -12 36 -16 19 -4 38 -13 41 -20 3 -8 22 -18 44 -24 21 -6
44 -16 51 -23 7 -7 29 -19 48 -27 19 -8 41 -20 48 -27 7 -7 29 -15 48 -19 20
-4 38 -13 41 -20 3 -7 21 -16 40 -20 19 -4 37 -13 40 -20 3 -8 22 -18 44 -24
21 -6 45 -17 53 -25 8 -8 18 -15 23 -15 15 0 63 -25 63 -32 0 -5 8 -8 19 -8
10 0 24 -7 31 -15 7 -8 21 -15 31 -15 11 0 19 -4 19 -8 0 -5 18 -14 39 -21 21
-6 42 -18 45 -26 3 -8 16 -15 29 -15 13 0 33 -9 45 -20 12 -11 27 -20 35 -20
7 0 23 -9 35 -20 12 -11 29 -20 39 -20 10 0 27 -7 37 -15 11 -8 28 -15 38 -15
10 0 18 -4 18 -8 0 -5 18 -15 39 -22 22 -7 42 -19 45 -26 3 -7 23 -18 45 -24
23 -6 41 -15 41 -20 0 -6 10 -10 21 -10 l22 0 -7 797 c-7 679 -10 798 -23 811
-18 18 -85 24 -138 11z"/>
<path d="M12710 10062 c0 -4 -20 -14 -45 -21 -25 -7 -45 -16 -45 -20 0 -4 -20
-13 -45 -20 -24 -7 -54 -22 -66 -32 -13 -11 -33 -22 -46 -25 -13 -4 -23 -10
-23 -14 0 -4 -22 -16 -50 -26 -27 -10 -50 -22 -50 -26 0 -5 -13 -14 -30 -19
-16 -6 -30 -15 -30 -19 0 -4 -18 -15 -40 -24 -22 -9 -40 -20 -40 -25 0 -5 -11
-12 -24 -15 -14 -3 -31 -12 -38 -20 -8 -7 -28 -21 -46 -30 -18 -9 -32 -20 -32
-24 0 -5 -16 -14 -35 -22 -19 -7 -36 -19 -39 -27 -3 -7 -11 -13 -18 -13 -7 0
-29 -14 -48 -30 -19 -16 -40 -30 -47 -30 -7 0 -17 -9 -23 -20 -6 -11 -17 -20
-25 -20 -8 0 -19 -9 -25 -20 -6 -11 -17 -20 -25 -20 -8 0 -20 -8 -27 -18 -7
-11 -24 -25 -38 -32 -13 -7 -33 -24 -43 -37 -10 -12 -23 -23 -28 -23 -5 0 -26
-18 -46 -40 -21 -22 -41 -40 -46 -40 -4 0 -43 -35 -86 -77 -43 -43 -86 -83
-96 -89 -10 -6 -23 -19 -29 -29 -15 -26 -65 -75 -76 -75 -6 0 -10 -5 -10 -11
0 -6 -22 -32 -50 -59 -27 -27 -50 -53 -50 -59 0 -6 -7 -11 -15 -11 -8 0 -15
-5 -15 -11 0 -6 -13 -24 -30 -41 -16 -16 -30 -35 -30 -41 0 -7 -14 -21 -30
-32 -16 -11 -30 -25 -30 -30 0 -10 -32 -53 -71 -94 -8 -10 -19 -24 -22 -32
-14 -28 -32 -54 -49 -67 -10 -7 -18 -20 -18 -28 0 -8 -4 -14 -10 -14 -5 0 -17
-17 -27 -37 -9 -21 -25 -44 -35 -51 -10 -7 -18 -20 -18 -28 0 -8 -4 -14 -9
-14 -5 0 -16 -16 -25 -35 -9 -19 -21 -35 -25 -35 -4 0 -14 -18 -21 -40 -7 -22
-17 -40 -22 -40 -4 0 -16 -17 -26 -37 -9 -21 -20 -40 -23 -43 -7 -6 -31 -49
-60 -110 -12 -25 -25 -47 -29 -50 -4 -3 -15 -29 -25 -57 -11 -29 -22 -53 -26
-53 -4 0 -13 -16 -19 -35 -6 -19 -15 -35 -19 -35 -4 0 -16 -27 -27 -60 -10
-33 -22 -60 -25 -60 -4 0 -12 -20 -19 -45 -7 -25 -16 -45 -19 -45 -4 0 -15
-29 -26 -65 -10 -36 -21 -65 -24 -65 -7 0 -31 -73 -31 -95 0 -8 -4 -15 -10
-15 -5 0 -17 -36 -26 -80 -10 -44 -21 -80 -24 -80 -4 0 -10 -14 -14 -31 -6
-30 -26 -32 -26 -3 0 8 -4 14 -8 14 -4 0 -16 32 -27 70 -11 39 -23 70 -27 70
-4 0 -13 20 -19 45 -6 25 -15 45 -20 45 -5 0 -9 6 -9 14 0 17 -32 80 -42 84
-5 2 -8 10 -8 18 0 8 -11 36 -25 62 -13 26 -29 59 -34 75 -6 15 -15 27 -21 27
-5 0 -10 6 -10 13 0 7 -9 23 -20 34 -10 12 -22 32 -25 45 -4 14 -17 37 -31 53
-13 15 -24 31 -24 35 0 4 -11 20 -25 36 -14 16 -25 33 -25 38 0 5 -7 16 -15
25 -47 52 -55 62 -55 69 0 9 -44 64 -77 97 -13 12 -23 26 -23 30 0 5 -20 29
-44 54 -123 128 -156 161 -160 161 -2 0 -24 19 -49 43 -24 23 -66 60 -91 82
-26 22 -56 48 -67 58 -10 9 -23 17 -27 17 -5 0 -24 14 -42 30 -18 17 -40 30
-47 30 -8 0 -16 6 -19 13 -2 7 -25 22 -49 32 -25 11 -45 23 -45 28 0 4 -7 7
-15 7 -8 0 -23 8 -33 18 -11 11 -42 27 -70 37 -29 11 -52 22 -52 25 0 4 -22
13 -50 20 -27 7 -50 16 -50 20 0 8 -55 27 -102 36 -21 3 -38 9 -38 13 0 8
-137 31 -182 31 -16 0 -28 5 -28 10 0 6 -52 10 -135 10 -74 0 -135 -4 -135 -8
0 -4 -44 -13 -97 -20 -53 -7 -100 -16 -103 -21 -3 -4 -40 -16 -82 -26 -43 -10
-78 -22 -78 -26 0 -5 -20 -14 -45 -20 -25 -6 -45 -15 -45 -20 0 -4 -19 -13
-42 -19 -24 -6 -47 -17 -53 -24 -5 -6 -26 -18 -45 -26 -19 -8 -38 -19 -42 -25
-4 -6 -25 -17 -48 -25 -22 -7 -40 -17 -40 -22 0 -5 -11 -13 -25 -18 -14 -5
-25 -14 -25 -19 0 -6 -17 -18 -37 -28 -21 -9 -44 -25 -51 -35 -7 -10 -17 -18
-22 -18 -5 0 -20 -9 -32 -21 -13 -11 -44 -39 -69 -62 -25 -23 -63 -55 -84 -72
-22 -16 -48 -41 -60 -53 -11 -13 -33 -39 -50 -57 -16 -18 -52 -58 -80 -90 -27
-31 -62 -69 -77 -85 -16 -15 -28 -33 -28 -39 0 -5 -6 -14 -13 -18 -8 -4 -22
-23 -33 -42 -10 -19 -32 -48 -47 -65 -15 -17 -35 -47 -44 -66 -10 -19 -23 -39
-30 -43 -7 -4 -13 -14 -13 -22 0 -8 -6 -18 -13 -22 -7 -4 -21 -27 -32 -50 -11
-24 -23 -43 -26 -43 -3 0 -12 -18 -19 -40 -7 -22 -16 -40 -20 -40 -4 0 -15
-19 -26 -42 -10 -24 -24 -49 -31 -56 -7 -7 -13 -20 -13 -27 0 -7 -6 -20 -13
-27 -7 -7 -21 -41 -32 -75 -11 -35 -23 -63 -26 -63 -4 0 -13 -20 -20 -45 -7
-25 -16 -45 -19 -45 -3 0 -14 -31 -25 -70 -11 -39 -22 -70 -26 -70 -4 0 -12
-29 -19 -65 -7 -36 -16 -65 -20 -65 -8 0 -40 -150 -40 -187 0 -12 -4 -23 -9
-25 -6 -1 -16 -43 -22 -93 -7 -49 -16 -92 -20 -95 -4 -3 -13 -74 -20 -157 -7
-84 -17 -153 -21 -153 -4 0 -8 -130 -8 -290 0 -187 4 -290 10 -290 6 0 10 -19
10 -42 1 -87 34 -168 70 -168 6 0 10 -7 10 -15 0 -9 12 -18 30 -21 17 -4 30
-10 30 -15 0 -12 118 -11 133 1 69 56 97 87 102 111 4 16 11 29 16 29 5 0 9
27 9 60 0 33 -4 60 -10 60 -13 0 -14 563 -1 588 5 9 15 78 21 152 7 74 15 137
19 140 4 3 15 54 24 114 10 60 21 114 26 120 5 6 14 36 21 66 7 30 17 62 21
70 5 8 16 43 26 78 10 34 21 62 24 62 4 0 10 18 14 40 4 22 13 46 20 53 7 8
21 39 31 70 10 31 21 57 25 57 5 0 14 18 20 40 7 22 15 40 19 40 4 0 15 21 25
48 10 26 24 51 32 55 7 4 13 14 13 22 0 7 6 20 13 27 7 7 21 31 31 52 18 39
26 50 56 84 8 10 24 34 35 55 11 20 23 37 28 37 4 0 12 11 17 25 5 14 13 25
18 25 4 0 16 15 27 33 10 17 24 36 32 40 7 4 13 12 13 18 0 13 286 299 299
299 6 0 16 9 23 20 7 11 18 20 25 20 6 0 18 8 25 19 7 10 28 26 46 35 18 9 42
26 53 37 10 10 26 19 34 19 8 0 15 4 15 8 0 5 18 17 40 27 22 10 40 21 40 25
0 3 24 15 53 25 28 10 57 24 64 31 7 6 29 15 50 19 21 4 40 11 43 15 3 5 46
17 95 27 50 10 92 21 93 26 6 11 272 9 272 -3 0 -5 14 -10 32 -10 35 0 150
-29 158 -40 3 -4 29 -13 58 -20 28 -6 52 -16 52 -20 0 -4 23 -16 50 -26 28
-10 50 -21 50 -24 0 -4 18 -15 40 -25 22 -10 40 -21 40 -26 0 -4 14 -12 30
-18 17 -5 30 -15 30 -20 0 -6 6 -11 14 -11 8 0 23 -11 34 -25 11 -14 24 -25
28 -25 11 0 69 -46 100 -77 11 -13 24 -23 28 -23 9 0 166 -156 166 -165 0 -3
18 -24 40 -45 22 -21 40 -43 40 -49 0 -5 6 -14 13 -18 8 -4 22 -21 33 -38 10
-16 24 -34 31 -38 7 -4 13 -14 13 -22 0 -8 8 -20 18 -27 10 -7 25 -28 33 -45
7 -18 18 -33 22 -33 4 0 15 -16 23 -35 8 -19 18 -35 22 -35 4 0 14 -16 21 -35
7 -19 16 -35 20 -35 5 0 16 -20 25 -45 10 -25 22 -45 26 -45 5 0 14 -19 20
-42 7 -22 18 -47 26 -55 7 -8 19 -32 25 -53 7 -22 16 -40 20 -40 5 0 14 -20
20 -45 6 -25 15 -45 20 -45 5 0 9 -7 9 -15 0 -17 25 -97 45 -140 7 -16 16 -46
20 -65 4 -19 11 -39 15 -45 5 -5 16 -50 26 -100 9 -49 20 -92 24 -95 4 -3 12
-45 19 -95 7 -49 16 -92 20 -95 18 -12 33 -336 29 -648 -3 -299 -2 -325 15
-336 9 -7 17 -18 17 -25 0 -6 10 -16 23 -22 12 -6 28 -22 35 -37 15 -34 52
-52 123 -59 76 -8 136 15 169 65 14 20 29 40 34 44 5 3 10 149 11 330 2 305
16 558 35 603 5 11 14 67 21 125 7 58 15 107 19 110 3 3 14 55 24 115 10 61
21 115 26 120 4 6 16 46 25 90 10 44 21 85 25 90 4 6 13 35 20 65 7 30 16 57
20 60 3 3 14 35 24 73 10 37 21 67 25 67 4 0 14 23 21 50 7 28 17 50 20 50 4
0 15 29 25 65 11 36 22 65 25 65 4 0 13 18 20 40 7 22 17 40 21 40 4 0 15 23
24 50 9 28 20 50 24 50 4 0 14 18 21 40 7 22 19 45 26 51 7 6 16 23 19 39 3
15 15 36 25 45 10 9 22 30 25 45 3 16 12 31 20 33 7 3 19 23 26 44 6 21 20 44
31 51 10 7 18 18 18 23 0 5 4 15 10 22 20 24 80 119 80 127 0 4 7 10 15 14 8
3 20 17 25 31 5 14 13 25 18 25 4 0 14 16 22 35 8 19 17 35 21 35 4 0 31 30
59 68 29 37 62 76 74 88 11 12 33 37 48 56 15 19 39 47 53 62 14 15 25 31 25
37 0 5 7 9 15 9 9 0 18 7 22 16 9 23 240 248 340 331 11 10 35 29 53 43 17 14
40 33 51 43 10 9 23 17 29 17 5 0 17 11 26 25 9 14 21 25 28 25 6 0 27 14 46
30 19 16 38 30 43 30 4 0 16 8 27 18 11 9 28 24 38 33 11 9 33 22 50 30 18 8
32 17 32 21 0 4 17 15 38 25 20 9 46 25 56 35 11 10 25 18 32 18 6 0 14 6 17
13 3 7 23 19 46 27 23 7 41 17 41 22 0 5 14 14 30 19 17 6 30 15 30 19 0 5 13
11 29 15 15 3 37 14 47 24 11 9 43 26 72 36 28 10 52 22 52 25 0 4 18 12 39
19 56 16 100 64 114 123 7 26 15 48 19 48 5 0 8 9 8 20 0 11 -4 20 -9 20 -5 0
-11 18 -15 41 -8 48 -61 106 -106 115 -16 4 -30 10 -30 15 0 5 -18 9 -40 9
-22 0 -40 -4 -40 -8z"/>
</g>
</svg>
